<svg enable-background="new 0 0 24 24" viewBox="0 0 24 24" xmlns="http://www.w3.org/2000/svg"><g><path class="icon-stroke icon-stroke-color-a" d="m8 10h-4c-1.105 0-2-.895-2-2v-4c0-1.105.895-2 2-2h4c1.105 0 2 .895 2 2v4c0 1.105-.895 2-2 2z" /><path class="icon-stroke icon-stroke-color-a" d="m20 10h-4c-1.105 0-2-.895-2-2v-4c0-1.105.895-2 2-2h4c1.105 0 2 .895 2 2v4c0 1.105-.895 2-2 2z"/><g><path class="icon-stroke icon-stroke-color-b" d="m8 22h-4c-1.105 0-2-.895-2-2v-4c0-1.105.895-2 2-2h4c1.105 0 2 .895 2 2v4c0 1.105-.895 2-2 2z"/><path class="icon-stroke icon-stroke-color-b" d="m20 22h-4c-1.105 0-2-.895-2-2v-4c0-1.105.895-2 2-2h4c1.105 0 2 .895 2 2v4c0 1.105-.895 2-2 2z"/></g></g></svg>